# xmcd CD database file
#
# Track frame offsets:
#	150
#	19160
#	37604
#	49478
#	67457
#	82283
#	99805
#	116019
#	128529
#	152121
#	167836
#	177275
#	194055
#	212346
#	237232
#	250567
#	263196
#
# Disc length: 3712 seconds
#
# Revision: 3
# Processed by: cddbd v1.5.2PL0 Copyright (c) Steve Scherf et al.
# Submitted via: CDex 1.51
#
DISCID=ea0e7e11
DTITLE=Robin Thicke - Love After War
DYEAR=2011
DGENRE=R&B
TTITLE0=An Angel on Each Arm
TTITLE1=I'm an Animal
TTITLE2=Never Give Up
TTITLE3=The New Generation
TTITLE4=Love After War
TTITLE5=All Tied Up
TTITLE6=Pretty Lil' Heart (feat. Lil Wayne)
TTITLE7=Mission
TTITLE8=Tears on My Tuxedo
TTITLE9=Boring
TTITLE10=Lovely Lady
TTITLE11=Dangerous
TTITLE12=Full Time Believer
TTITLE13=I Don't Know How It Feels to Be U
TTITLE14=Cloud 9
TTITLE15=The Lil' Things
TTITLE16=What Would I Be?
EXTD=YEAR: 2011
EXTT0=
EXTT1=
EXTT2=
EXTT3=
EXTT4=
EXTT5=
EXTT6=
EXTT7=
EXTT8=
EXTT9=
EXTT10=
EXTT11=
EXTT12=
EXTT13=
EXTT14=
EXTT15=
EXTT16=
PLAYORDER=
